{
  "accessors": [
    {
      "bufferView": 2,
      "componentType": 5126,
      "count": 65532,
      "max": [
        233.11347961425781,
        24.855714797973633,
        203.73931884765625
      ],
      "min": [
        9.8506937026977539,
        -158.30665588378906,
        -84.02008056640625
      ],
      "type": "VEC3"
    },
    {
      "bufferView": 2,
      "byteOffset": 786384,
      "componentType": 5126,
      "count": 65532,
      "max": [
        0.99984294176101685,
        0.99999654293060303,
        0.99994194507598877
      ],
      "min": [
        -0.99988627433776855,
        -0.99998080730438232,
        -0.9996495246887207
      ],
      "type": "VEC3"
    },
    {
      "bufferView": 1,
      "componentType": 5126,
      "count": 65532,
      "max": [
        0.99999630451202393,
        0.65505272150039673
      ],
      "min": [
        5.7900269894162193e-06,
        0.32490670680999756
      ],
      "type": "VEC2"
    },
    {
      "bufferView": 0,
      "componentType": 5125,
      "count": 370821,
      "max": [
        65531
      ],
      "min": [
        0
      ],
      "type": "SCALAR"
    },
    {
      "bufferView": 2,
      "byteOffset": 1572768,
      "componentType": 5126,
      "count": 65532,
      "max": [
        209.378662109375,
        16.953765869140625,
        245.83457946777344
      ],
      "min": [
        -189.00935363769531,
        -89.9404296875,
        -204.99501037597656
      ],
      "type": "VEC3"
    },
    {
      "bufferView": 2,
      "byteOffset": 2359152,
      "componentType": 5126,
      "count": 65532,
      "max": [
        0.99993669986724854,
        0.99994897842407227,
        0.99997222423553467
      ],
      "min": [
        -0.99960380792617798,
        -0.99999254941940308,
        -0.99981915950775146
      ],
      "type": "VEC3"
    },
    {
      "bufferView": 1,
      "byteOffset": 524256,
      "componentType": 5126,
      "count": 65532,
      "max": [
        0.99996888637542725,
        0.60586291551589966
      ],
      "min": [
        2.6223191525787115e-05,
        0.40187156200408936
      ],
      "type": "VEC2"
    },
    {
      "bufferView": 0,
      "byteOffset": 1483284,
      "componentType": 5125,
      "count": 361326,
      "max": [
        65531
      ],
      "min": [
        0
      ],
      "type": "SCALAR"
    },
    {
      "bufferView": 2,
      "byteOffset": 3145536,
      "componentType": 5126,
      "count": 65532,
      "max": [
        177.27992248535156,
        80.654045104980469,
        235.11117553710938
      ],
      "min": [
        -122.66069793701172,
        -148.54838562011719,
        -211.56634521484375
      ],
      "type": "VEC3"
    },
    {
      "bufferView": 2,
      "byteOffset": 3931920,
      "componentType": 5126,
      "count": 65532,
      "max": [
        0.99913769960403442,
        0.99999731779098511,
        0.99996495246887207
      ],
      "min": [
        -0.99992066621780396,
        -0.99999946355819702,
        -0.99998360872268677
      ],
      "type": "VEC3"
    },
    {
      "bufferView": 1,
      "byteOffset": 1048512,
      "componentType": 5126,
      "count": 65532,
      "max": [
        0.92528390884399414,
        0.65665966272354126
      ],
      "min": [
        0.089799553155899048,
        0.31904947757720947
      ],
      "type": "VEC2"
    },
    {
      "bufferView": 0,
      "byteOffset": 2928588,
      "componentType": 5125,
      "count": 356964,
      "max": [
        65531
      ],
      "min": [
        0
      ],
      "type": "SCALAR"
    },
    {
      "bufferView": 2,
      "byteOffset": 4718304,
      "componentType": 5126,
      "count": 65532,
      "max": [
        208.79411315917969,
        100.76561737060547,
        190.06211853027344
      ],
      "min": [
        -178.90286254882812,
        -83.225868225097656,
        -245.83457946777344
      ],
      "type": "VEC3"
    },
    {
      "bufferView": 2,
      "byteOffset": 5504688,
      "componentType": 5126,
      "count": 65532,
      "max": [
        0.99940550327301025,
        0.99999183416366577,
        0.99987232685089111
      ],
      "min": [
        -0.99986803531646729,
        -0.9999920129776001,
        -0.99998635053634644
      ],
      "type": "VEC3"
    },
    {
      "bufferView": 1,
      "byteOffset": 1572768,
      "componentType": 5126,
      "count": 65532,
      "max": [
        0.99999630451202393,
        0.62762242555618286
      ],
      "min": [
        1.966976560652256e-05,
        0.38410675525665283
      ],
      "type": "VEC2"
    },
    {
      "bufferView": 0,
      "byteOffset": 4356444,
      "componentType": 5125,
      "count": 344421,
      "max": [
        65531
      ],
      "min": [
        0
      ],
      "type": "SCALAR"
    },
    {
      "bufferView": 2,
      "byteOffset": 6291072,
      "componentType": 5126,
      "count": 65532,
      "max": [
        232.78813171386719,
        193.06640625,
        202.36260986328125
      ],
      "min": [
        -130.61373901367188,
        -156.10427856445312,
        -231.33741760253906
      ],
      "type": "VEC3"
    },
    {
      "bufferView": 2,
      "byteOffset": 7077456,
      "componentType": 5126,
      "count": 65532,
      "max": [
        0.9999997615814209,
        0.99999916553497314,
        0.9999614953994751
      ],
      "min": [
        -0.99975413084030151,
        -0.99997758865356445,
        -0.999988853931427
      ],
      "type": "VEC3"
    },
    {
      "bufferView": 1,
      "byteOffset": 2097024,
      "componentType": 5126,
      "count": 65532,
      "max": [
        0.99851357936859131,
        0.65806937217712402
      ],
      "min": [
        0.18558767437934875,
        0.31678175926208496
      ],
      "type": "VEC2"
    },
    {
      "bufferView": 0,
      "byteOffset": 5734128,
      "componentType": 5125,
      "count": 345132,
      "max": [
        65531
      ],
      "min": [
        0
      ],
      "type": "SCALAR"
    },
    {
      "bufferView": 2,
      "byteOffset": 7863840,
      "componentType": 5126,
      "count": 41504,
      "max": [
        226.31752014160156,
        5.0667214393615723,
        202.27226257324219
      ],
      "min": [
        -147.44914245605469,
        -193.06640625,
        -205.42671203613281
      ],
      "type": "VEC3"
    },
    {
      "bufferView": 2,
      "byteOffset": 8361888,
      "componentType": 5126,
      "count": 41504,
      "max": [
        0.99998921155929565,
        0.99992972612380981,
        0.99948412179946899
      ],
      "min": [
        -0.99996089935302734,
        -0.99998176097869873,
        -0.99998635053634644
      ],
      "type": "VEC3"
    },
    {
      "bufferView": 1,
      "byteOffset": 2621280,
      "componentType": 5126,
      "count": 41504,
      "max": [
        0.99261713027954102,
        0.62287038564682007
      ],
      "min": [
        0.089413151144981384,
        0.32009005546569824
      ],
      "type": "VEC2"
    },
    {
      "bufferView": 0,
      "byteOffset": 7114656,
      "componentType": 5125,
      "count": 213876,
      "max": [
        41503
      ],
      "min": [
        0
      ],
      "type": "SCALAR"
    }
  ],
  "asset": {
    "extras": {
      "author": "MAMA's Sneaker Stop (https://sketchfab.com/foxtuon)",
      "license": "CC-BY-4.0 (http://creativecommons.org/licenses/by/4.0/)",
      "source": "https://sketchfab.com/3d-models/liquid-splash-2-6624b028fa1e4ace900feab112532f11",
      "title": "Liquid Splash 2"
    },
    "generator": "Sketchfab-7.68.0",
    "version": "2.0"
  },
  "bufferViews": [
    {
      "buffer": 0,
      "byteLength": 7970160,
      "byteOffset": 0,
      "name": "floatBufferViews",
      "target": 34963
    },
    {
      "buffer": 0,
      "byteLength": 2953312,
      "byteOffset": 7970160,
      "byteStride": 8,
      "name": "floatBufferViews",
      "target": 34962
    },
    {
      "buffer": 0,
      "byteLength": 8859936,
      "byteOffset": 10923472,
      "byteStride": 12,
      "name": "floatBufferViews",
      "target": 34962
    }
  ],
  "buffers": [
    {
      "byteLength": 19783408,
      "uri": "scene.bin"
    }
  ],
  "materials": [
    {
      "doubleSided": true,
      "emissiveFactor": [
        0.20461021512060606,
        0.18599983436242046,
        0.097348043557313996
      ],
      "name": "Scene_-_Root",
      "pbrMetallicRoughness": {
        "baseColorFactor": [
          0.33716361504833037,
          0.31854677812509186,
          0.26635560480286247,
          1
        ],
        "metallicFactor": 0,
        "roughnessFactor": 0.31572914123535156
      }
    }
  ],
  "meshes": [
    {
      "name": "Fluid_Free__0",
      "primitives": [
        {
          "attributes": {
            "NORMAL": 1,
            "POSITION": 0,
            "TEXCOORD_0": 2
          },
          "indices": 3,
          "material": 0,
          "mode": 4
        }
      ]
    },
    {
      "name": "Fluid_Free__0",
      "primitives": [
        {
          "attributes": {
            "NORMAL": 5,
            "POSITION": 4,
            "TEXCOORD_0": 6
          },
          "indices": 7,
          "material": 0,
          "mode": 4
        }
      ]
    },
    {
      "name": "Fluid_Free__0",
      "primitives": [
        {
          "attributes": {
            "NORMAL": 9,
            "POSITION": 8,
            "TEXCOORD_0": 10
          },
          "indices": 11,
          "material": 0,
          "mode": 4
        }
      ]
    },
    {
      "name": "Fluid_Free__0",
      "primitives": [
        {
          "attributes": {
            "NORMAL": 13,
            "POSITION": 12,
            "TEXCOORD_0": 14
          },
          "indices": 15,
          "material": 0,
          "mode": 4
        }
      ]
    },
    {
      "name": "Fluid_Free__0",
      "primitives": [
        {
          "attributes": {
            "NORMAL": 17,
            "POSITION": 16,
            "TEXCOORD_0": 18
          },
          "indices": 19,
          "material": 0,
          "mode": 4
        }
      ]
    },
    {
      "name": "Fluid_Free__0",
      "primitives": [
        {
          "attributes": {
            "NORMAL": 21,
            "POSITION": 20,
            "TEXCOORD_0": 22
          },
          "indices": 23,
          "material": 0,
          "mode": 4
        }
      ]
    }
  ],
  "nodes": [
    {
      "children": [
        1
      ],
      "name": "RootNode (gltf orientation matrix)",
      "rotation": [
        -0.70710678118654746,
        -0,
        -0,
        0.70710678118654757
      ]
    },
    {
      "children": [
        2
      ],
      "matrix": [
        1,
        0,
        0,
        0,
        0,
        -0.029875976964831352,
        0.9995536208152771,
        0,
        0,
        -0.9995536208152771,
        -0.029875976964831352,
        0,
        0,
        -0.00015782407717779279,
        -0.00083864398766309023,
        1
      ],
      "name": "RootNode (model correction matrix)"
    },
    {
      "children": [
        3
      ],
      "matrix": [
        1,
        0,
        0,
        0,
        0,
        0,
        1,
        0,
        0,
        -1,
        0,
        0,
        0,
        0,
        0,
        1
      ],
      "name": "1d95bcc309274e71aa8e0e844e4317f6.fbx"
    },
    {
      "children": [
        4
      ],
      "name": "RootNode"
    },
    {
      "children": [
        5,
        6,
        7,
        8,
        9,
        10
      ],
      "matrix": [
        1,
        0,
        0,
        0,
        0,
        2.2204460492503131e-16,
        -1,
        0,
        0,
        1,
        2.2204460492503131e-16,
        0,
        0,
        0,
        0,
        1
      ],
      "name": "Fluid_Free"
    },
    {
      "mesh": 0,
      "name": "Fluid_Free__0"
    },
    {
      "mesh": 1,
      "name": "Fluid_Free__0"
    },
    {
      "mesh": 2,
      "name": "Fluid_Free__0"
    },
    {
      "mesh": 3,
      "name": "Fluid_Free__0"
    },
    {
      "mesh": 4,
      "name": "Fluid_Free__0"
    },
    {
      "mesh": 5,
      "name": "Fluid_Free__0"
    }
  ],
  "scene": 0,
  "scenes": [
    {
      "name": "OSG_Scene",
      "nodes": [
        0
      ]
    }
  ]
}

